<svg width="100" height="100" viewBox="0 0 100 100" fill="none" xmlns="http://www.w3.org/2000/svg">
<g clip-path="url(#clip0_3488_4584)">
<circle cx="50" cy="50" r="50" fill="#B6DEFC"/>
<mask id="mask0_3488_4584" style="mask-type:alpha" maskUnits="userSpaceOnUse" x="0" y="0" width="100" height="100">
<circle cx="50" cy="50" r="50" fill="#C4C4C4"/>
</mask>
<g mask="url(#mask0_3488_4584)">
<path d="M60.2438 96.2815C60.2438 96.2815 58.3063 102.381 49.4082 102.381C39.0749 102.381 36.6351 96.8556 36.6351 96.8556C37.568 94.4875 38.1421 92.263 38.5726 90.3255C39.362 86.7376 39.4337 83.8672 39.4337 82.145L57.5887 81.4274C57.7323 82.9344 58.0193 84.8001 58.3063 86.5941C59.1674 91.4019 60.2438 96.2815 60.2438 96.2815Z" fill="#FFB8A1"/>
<path d="M58.3073 86.595C55.5087 88.5325 49.3374 91.4746 38.5736 90.3265C39.363 86.7385 39.4347 83.8682 39.4347 82.146L57.5897 81.4284C57.7332 82.9353 58.0203 84.7293 58.3073 86.595Z" fill="#283252"/>
<path d="M32.4728 58.3942C32.4728 58.3942 26.8756 50.716 22.4983 55.2368C18.121 59.7576 26.5885 75.5446 34.195 72.1001L32.4728 58.3942Z" fill="#FFB8A1"/>
<path d="M29.7467 67.436C29.5315 67.436 29.388 67.2925 29.388 67.0772C28.6704 61.7671 24.4366 58.4662 24.3648 58.4662C24.2213 58.3226 24.1496 58.1074 24.2931 57.8921C24.4366 57.7486 24.6519 57.6768 24.8671 57.8203C25.0824 57.9638 29.388 61.3365 30.1773 66.9337C30.1773 67.2207 30.0338 67.436 29.7467 67.436C29.8185 67.436 29.8185 67.436 29.7467 67.436Z" fill="#FF8A8A"/>
<path d="M28.5984 63.6322C28.4549 63.6322 28.3832 63.5605 28.3114 63.4887C27.7373 62.6276 26.0869 62.5558 25.4411 62.6276C25.2258 62.6276 25.0105 62.4841 25.0105 62.2688C25.0105 62.0535 25.154 61.8382 25.3693 61.8382C25.4411 61.8382 28.0244 61.6947 28.8855 63.0581C29.029 63.2017 28.9572 63.4887 28.8137 63.6322C28.742 63.6322 28.6702 63.6322 28.5984 63.6322Z" fill="#FF8A8A"/>
<path d="M66.7028 58.3942C66.7028 58.3942 72.3 50.716 76.6773 55.2368C81.0546 59.7576 72.587 75.5446 64.9806 72.1001L66.7028 58.3942Z" fill="#FFB8A1"/>
<path d="M69.4301 67.4371C69.3583 67.4371 69.4301 67.4371 69.4301 67.4371C69.143 67.4371 68.9995 67.2218 69.0713 67.0065C69.8606 61.3376 74.1662 58.0367 74.3814 57.8932C74.525 57.7496 74.812 57.8214 74.9555 57.9649C75.099 58.1084 75.0273 58.3955 74.8837 58.539C74.812 58.539 70.5782 61.8399 69.8606 67.1501C69.7889 67.2936 69.5736 67.4371 69.4301 67.4371Z" fill="#FF8A8A"/>
<path d="M70.5778 63.6311C70.506 63.6311 70.4343 63.6311 70.3625 63.5594C70.219 63.4159 70.1472 63.2006 70.2908 62.9853C71.2236 61.6219 73.7352 61.7654 73.8069 61.7654C74.0222 61.7654 74.1657 61.9807 74.1657 62.196C74.1657 62.4112 73.9505 62.5548 73.7352 62.5548C73.1611 62.483 71.4389 62.6265 70.8648 63.4159C70.8648 63.5594 70.7213 63.6311 70.5778 63.6311Z" fill="#FF8A8A"/>
<path d="M54.3597 36.0768C38.5727 32.2018 24.3645 46.4818 27.8807 62.2688C30.3922 73.3914 35.9177 87.5279 49.4083 87.8149C63.4731 88.1737 69.142 72.8173 71.1513 61.1924C73.017 50.5721 66.774 40.0953 56.5125 36.7226C55.7949 36.4356 55.0773 36.2203 54.3597 36.0768Z" fill="#FFB8A1"/>
<path d="M50.557 71.8849C49.9111 71.8849 49.1218 71.7414 48.3324 71.3826C48.1172 71.3108 47.9736 71.0238 47.9736 70.8085L49.1218 62.1975C49.1935 61.9104 49.4088 61.6951 49.7676 61.6951C50.0546 61.7669 50.2699 61.9822 50.2699 62.341L49.1935 70.5932C50.2699 71.0238 51.131 70.952 51.8486 70.5215C52.1357 70.378 52.4227 70.4497 52.638 70.665C52.7815 70.952 52.7097 71.2391 52.4944 71.4544C51.8486 71.6696 51.2745 71.8849 50.557 71.8849Z" fill="#FF8A8A"/>
<path d="M49.4802 77.5535C46.3228 77.5535 43.883 76.2619 43.883 76.1901C43.5959 76.0466 43.5242 75.6878 43.6677 75.4008C43.8112 75.1137 44.17 75.042 44.4571 75.1855C44.7441 75.329 50.8436 78.6299 56.1538 73.7503C56.369 73.535 56.7278 73.535 56.9431 73.7503C57.1584 73.9656 57.1584 74.3244 56.9431 74.5397C54.4315 76.9077 51.7765 77.5535 49.4802 77.5535Z" fill="#FF8A8A"/>
<path d="M50.4125 80.7823C49.1926 80.7823 48.1162 80.4952 48.1162 80.4235C47.8292 80.3517 47.6857 79.9929 47.7574 79.7059C47.8292 79.4189 48.188 79.2753 48.475 79.3471C48.475 79.3471 50.9866 80.0647 52.7088 79.1318C52.9958 78.9883 53.2829 79.0601 53.4981 79.3471C53.6417 79.6341 53.5699 79.9212 53.2829 80.1365C52.2782 80.6388 51.2736 80.7823 50.4125 80.7823Z" fill="#FF8A8A"/>
<path d="M38.7156 56.0975C39.9355 55.4517 41.6577 54.6623 43.3799 54.4471C44.3128 54.3035 44.8869 53.3707 44.5281 52.5096L44.4563 52.3661C44.241 51.7202 43.5952 51.3614 42.9494 51.4332C41.4424 51.5767 38.7874 52.1508 36.9934 53.873C36.6346 54.2318 36.4911 54.8059 36.6346 55.3082C36.9216 56.1693 37.9262 56.5281 38.7156 56.0975Z" fill="#283252"/>
<path d="M61.679 56.0975C60.4591 55.4517 58.7369 54.6623 57.0147 54.4471C56.0818 54.3035 55.5077 53.3707 55.8665 52.5096L55.9383 52.3661C56.1536 51.7202 56.7994 51.3614 57.4452 51.4332C58.9522 51.5767 61.6072 52.1508 63.4012 53.873C63.76 54.2318 63.9035 54.8059 63.76 55.3082C63.4012 56.1693 62.4684 56.5281 61.679 56.0975Z" fill="#283252"/>
<g opacity="0.5">
<g opacity="0.5">
<path opacity="0.5" d="M42.7342 66.071C42.7342 67.4344 40.2226 68.5108 37.137 68.5108C34.0514 68.5108 31.5398 67.4344 31.5398 66.071C31.5398 64.7076 34.0514 63.6312 37.137 63.6312C40.2226 63.6312 42.7342 64.7076 42.7342 66.071Z" fill="#FF8A8A"/>
</g>
</g>
<g opacity="0.5">
<g opacity="0.5">
<path opacity="0.5" d="M69.1413 66.071C69.1413 67.4344 66.6297 68.5108 63.5441 68.5108C60.4585 68.5108 57.9469 67.4344 57.9469 66.071C57.9469 64.7076 60.4585 63.6312 63.5441 63.6312C66.6297 63.6312 69.1413 64.7076 69.1413 66.071Z" fill="#FF8A8A"/>
</g>
</g>
<path d="M28.4545 64.7079C28.4545 64.7079 25.5124 48.4186 26.4452 44.6872C27.3781 40.9557 29.2438 41.6733 29.2438 41.6733C29.2438 41.6733 13.3134 28.5414 21.2786 21.1502C27.0193 15.7683 33.6211 27.2497 33.6211 27.2497C33.6211 27.2497 30.3202 15.9836 34.9846 14.4766C40.797 12.5392 43.3804 26.0298 43.3804 26.0298C43.3804 26.0298 42.878 15.9836 47.6141 16.1271C54.1442 16.4141 50.4845 23.9488 57.5169 26.8909C64.621 29.8331 75.3131 31.34 71.4381 43.1802C71.4381 43.1802 76.6047 42.9649 70.1464 64.1338C68.496 61.8375 67.6349 58.9672 67.7784 56.1686C67.8501 53.9441 67.8501 51.4325 67.4196 49.8538C67.4196 49.8538 63.4011 47.0552 63.5446 42.8932C63.5446 42.8932 49.2646 51.3607 36.1327 43.8261C36.1327 43.8261 36.9938 48.7057 32.8318 49.4232C32.8318 49.4232 31.4684 52.5806 31.0378 57.1015C30.8225 59.7565 30.0332 62.2681 28.598 64.4926L28.4545 64.7079Z" fill="#283252"/>
<path d="M70.1467 35.7888C70.1467 35.7888 72.3712 28.1106 76.0309 30.0481C78.6143 31.4833 72.5865 37.2958 72.5865 37.2958C72.5865 37.2958 77.6814 34.5689 80.193 36.5064C82.7045 38.4439 76.031 40.7402 72.2277 40.0944C68.3527 39.3768 70.1467 35.7888 70.1467 35.7888Z" fill="#283252"/>
<path d="M43.1651 60.3323C43.1651 61.8393 42.6628 63.0592 41.9452 63.0592C41.2276 63.0592 40.6535 61.8393 40.5818 60.3323C40.5818 58.8254 41.0841 57.6055 41.8017 57.6055C42.5193 57.6055 43.0934 58.8254 43.1651 60.3323Z" fill="#283252"/>
<path d="M56.5841 60.331C56.5841 61.8379 57.0864 63.0578 57.804 63.0578C58.5216 63.0578 59.0957 61.8379 59.1674 60.331C59.1674 58.8241 58.6651 57.6042 57.9475 57.6042C57.2299 57.6042 56.5841 58.8241 56.5841 60.331Z" fill="#283252"/>
</g>
</g>
<rect x="0.5" y="0.5" width="99" height="99" rx="49.5" stroke="white"/>
<defs>
<clipPath id="clip0_3488_4584">
<rect width="100" height="100" rx="50" fill="white"/>
</clipPath>
</defs>
</svg>
